<svg width="512" height="512" viewBox="0 0 512 512" fill="none" xmlns="http://www.w3.org/2000/svg">
<path d="M211.482 264.329C212.113 264.466 212.728 264.534 213.342 264.534C217.259 264.534 220.783 261.829 221.662 257.852C222.336 254.806 237.551 185.472 238.805 119.467H247.466V256C247.466 260.71 251.289 264.533 255.999 264.533C260.709 264.533 264.532 260.71 264.532 256V110.933C264.532 106.223 260.709 102.4 255.999 102.4H235.988C234.051 97.485 231.312 89.344 230.586 80.93L256 61.867L281.421 80.93C280.26 94.302 274.031 106.982 273.963 107.127C273.374 108.305 273.067 109.619 273.067 110.933C273.067 179.345 289.63 254.677 290.338 257.851C291.217 261.828 294.75 264.533 298.658 264.533C299.272 264.533 299.895 264.465 300.518 264.328C305.117 263.304 308.019 258.747 307.003 254.148C306.832 253.397 290.448 178.918 290.141 112.819C292.505 107.537 298.666 92.356 298.666 76.8C298.666 74.112 297.403 71.578 295.253 69.973L264.533 46.933V8.533C264.533 3.823 260.71 0 256 0C251.29 0 247.467 3.823 247.467 8.533V46.933L216.747 69.973C214.597 71.577 213.334 74.112 213.334 76.8C213.334 92.433 219.495 107.537 221.842 112.742C221.543 178.807 205.176 253.397 205.006 254.148C203.981 258.748 206.882 263.305 211.482 264.329Z" fill="#EFCE6B"/>
<path d="M179.2 290.133H194.167C185.548 326.272 171.724 354.278 171.571 354.585C169.463 358.8 171.178 363.929 175.385 366.028C176.614 366.642 177.911 366.933 179.199 366.933C182.322 366.933 185.334 365.201 186.836 362.214C187.51 360.857 202.725 330.112 211.694 290.133H228.291L213.537 356.548C212.513 361.147 215.414 365.704 220.014 366.728C220.637 366.864 221.26 366.933 221.874 366.933C225.791 366.933 229.315 364.228 230.194 360.251L245.776 290.133H266.213L281.803 360.251C282.682 364.228 286.215 366.933 290.123 366.933C290.737 366.933 291.36 366.865 291.983 366.728C296.582 365.704 299.484 361.147 298.468 356.548L283.705 290.133H300.294C309.271 330.112 324.486 360.857 325.169 362.214C326.654 365.201 329.675 366.933 332.806 366.933C334.077 366.933 335.392 366.643 336.603 366.028C340.827 363.929 342.534 358.8 340.434 354.585C340.28 354.278 326.456 326.271 317.829 290.133H332.8C337.519 290.133 341.333 286.31 341.333 281.6C341.333 276.89 337.519 273.067 332.8 273.067H179.2C174.49 273.067 170.667 276.89 170.667 281.6C170.667 286.31 174.49 290.133 179.2 290.133Z" fill="#EFCE6B"/>
<path d="M503.467 494.933H405.726C398.2 483.02 374.144 443.4 353.801 392.533H366.934C371.653 392.533 375.467 388.71 375.467 384C375.467 379.29 371.653 375.467 366.934 375.467H145.067C140.357 375.467 136.534 379.29 136.534 384C136.534 388.71 140.357 392.533 145.067 392.533H158.2C137.882 443.332 113.801 483.012 106.275 494.933H8.533C3.823 494.933 0 498.756 0 503.466C0 508.177 3.823 512 8.533 512H503.466C508.185 512 511.999 508.177 511.999 503.467C512 498.756 508.186 494.933 503.467 494.933ZM187.733 494.933C187.733 457.292 218.359 426.666 256 426.666C293.641 426.666 324.267 457.292 324.267 494.933H187.733ZM341.333 494.933C341.333 447.88 303.052 409.6 256 409.6C208.948 409.6 170.667 447.881 170.667 494.933H126.345C137.711 476.091 158.669 438.69 176.512 392.533H335.496C353.331 438.69 374.289 476.091 385.655 494.933H341.333Z" fill="#EFCE6B"/>
</svg>
