<svg width="340" height="339" viewBox="0 0 340 339" fill="none" xmlns="http://www.w3.org/2000/svg">
<g clip-path="url(#clip0_12_2)">
<path opacity="0.5" d="M335.12 2.28133L253.106 310.958C252.689 312.359 251.021 312.78 250.048 311.799L195.141 256.453L236.286 101.764C236.704 100.363 235.453 99.1019 234.062 99.5221L80.6004 140.997L25.9711 85.9309C24.9981 84.9501 25.4152 83.2684 26.8052 82.8483L332.896 0.0394586C334.285 -0.240774 335.537 1.02027 335.12 2.28133Z" fill="#FFCF00"/>
<path opacity="0.5" d="M195.138 256.45L174.009 336.316C173.592 337.718 171.924 338.138 170.951 337.157L0.530301 165.514C-0.442736 164.533 -0.0257214 162.852 1.36434 162.432L80.5978 140.994L195.138 256.45Z" fill="#FFCF00"/>
<path d="M236.28 101.761L195.134 256.45L80.5936 140.994L234.055 99.5193C235.446 99.0992 236.697 100.36 236.28 101.761Z" fill="#FFCF00"/>
</g>
<defs>
<clipPath id="clip0_12_2">
<rect width="340" height="339" fill="white"/>
</clipPath>
</defs>
</svg>
